<svg width="83" height="111" viewBox="0 0 83 111" fill="none" xmlns="http://www.w3.org/2000/svg">
<path d="M46.2696 2.39698C42.3 1.0868 38.1276 0.265684 33.8148 0H1.62745C0.728635 0 0 0.730831 0 1.63235V70.7319L10.472 60.2283C14.9818 55.705 21.0984 53.1638 27.4762 53.1638C32.6875 53.1638 37.7243 54.8604 41.8528 57.9487C45.6759 56.2614 54.288 47.1399 48.0762 20.9715C46.4579 14.1545 45.9692 7.95632 46.2696 2.39698Z" fill="#64F5AC"/>
<path d="M45.6222 61.4563C49.4155 65.8311 51.5236 71.4484 51.5236 77.2837C51.5236 83.6807 48.9901 89.8157 44.4803 94.339L27.8693 111H33.7178C33.7714 111 33.8148 110.956 33.8148 110.903C33.8148 110.851 33.8551 110.809 33.9063 110.805C61.2943 109.068 83 84.9286 83 55.4056C83 32.4172 69.8396 12.6933 51.0837 4.26761C50.9744 8.95343 51.4745 14.145 52.8258 19.8373C58.6902 44.5419 52.2111 57.1478 45.6222 61.4563Z" fill="#64F5AC"/>
<path fill-rule="evenodd" clip-rule="evenodd" d="M21.0677 111H1.62745C0.728636 111 0 110.269 0 109.368V77.5541L13.8729 63.6394C17.4807 60.0207 22.3739 57.9878 27.4762 57.9878C32.5784 57.9878 37.4716 60.0207 41.0795 63.6394C44.6873 67.2581 46.7141 72.1661 46.7141 77.2837C46.7141 82.4013 44.6873 87.3093 41.0795 90.928L21.0677 111ZM22.3749 82.4003C21.924 81.948 21.6706 81.3345 21.6706 80.6948C21.6706 80.0551 21.924 79.4416 22.3749 78.9892L29.1766 72.1671C29.6276 71.7147 30.2392 71.4606 30.877 71.4606C31.5148 71.4606 32.1264 71.7147 32.5774 72.1671C33.0284 72.6194 33.2817 73.2329 33.2817 73.8726C33.2817 74.5123 33.0284 75.1258 32.5774 75.5782L25.7758 82.4003C25.3248 82.8526 24.7131 83.1067 24.0753 83.1067C23.4376 83.1067 22.8259 82.8526 22.3749 82.4003Z" fill="#64F5AC"/>
<path d="M10.4366 60.193L0.05 70.611V1.63235C0.05 0.758303 0.756391 0.05 1.62745 0.05H33.8133C38.108 0.314706 42.2634 1.13076 46.2177 2.43249C45.9212 7.98699 46.4119 14.1772 48.0275 20.9831C54.2226 47.0806 45.6631 56.1876 41.8592 57.8911C37.7266 54.8075 32.6884 53.1138 27.4762 53.1138C21.0851 53.1138 14.9558 55.6603 10.4366 60.193ZM51.5736 77.2837C51.5736 71.4555 49.475 65.8444 45.6974 61.4667C52.2954 57.1119 58.7268 44.4799 52.8744 19.8257C51.5314 14.168 51.0298 9.00582 51.132 4.34418C69.8328 12.7788 82.95 32.4644 82.95 55.4056C82.95 84.9046 61.2624 109.019 33.9032 110.756C33.8258 110.76 33.7648 110.825 33.7648 110.903C33.7648 110.929 33.7436 110.95 33.7178 110.95H27.9898L44.5157 94.3743C49.0348 89.8416 51.5736 83.6939 51.5736 77.2837ZM41.0441 90.8927L21.0469 110.95H1.62745C0.756391 110.95 0.05 110.242 0.05 109.368V77.5747L13.9083 63.6747C17.5067 60.0654 22.3872 58.0378 27.4762 58.0378C32.5651 58.0378 37.4456 60.0654 41.0441 63.6747C44.6425 67.284 46.6641 72.1793 46.6641 77.2837C46.6641 82.3881 44.6425 87.2834 41.0441 90.8927ZM21.6206 80.6948C21.6206 81.3477 21.8792 81.9739 22.3395 82.4356C22.7999 82.8973 23.4243 83.1568 24.0753 83.1568C24.7264 83.1568 25.3508 82.8973 25.8112 82.4356L32.6128 75.6135C33.0732 75.1517 33.3317 74.5255 33.3317 73.8726C33.3317 73.2197 33.0732 72.5935 32.6128 72.1318C32.1525 71.6701 31.5281 71.4106 30.877 71.4106C30.2259 71.4106 29.6015 71.6701 29.1412 72.1318L22.3395 78.9539C21.8792 79.4156 21.6206 80.0418 21.6206 80.6948Z" stroke="#066033" stroke-opacity="0.6" stroke-width="0.1"/>
</svg>
